<?xml version="1.0"?>
<svg xmlns="http://www.w3.org/2000/svg" id="Outline" viewBox="0 0 512 512" width="512" height="512"><path d="M490.882,272.537,452.92,257.876l-28.734-83.233L424,127.968A8,8,0,0,0,416,120H248V98.422l14.656-21.984A8,8,0,0,0,264,72V48a8,8,0,0,0-8-8H144a8,8,0,0,0-8,8V72a8,8,0,0,0,1.344,4.438L152,98.422V120H24a8,8,0,0,0-8,8V392a8,8,0,0,0,8,8H43.619L24.364,461.614A8,8,0,0,0,32,472H192a8,8,0,0,0,8-8V400H304.581a55.992,55.992,0,0,0,110.838,0H488a8,8,0,0,0,8-8V280A8,8,0,0,0,490.882,272.537ZM435.345,256H384V184h26.489ZM304,136h32v16a22.5,22.5,0,0,1-2.155,8.422C331.26,165.592,326.86,168,320,168c-6.7,0-11.04-2.29-13.653-7.206A22.084,22.084,0,0,1,304,152Zm-48,0h32v16a22.5,22.5,0,0,1-2.155,8.422C283.26,165.592,278.86,168,272,168c-6.7,0-11.041-2.29-13.653-7.206A22.064,22.064,0,0,1,256,152ZM152,56h96V69.578L235.719,88H164.281L152,69.578Zm16,64V104h64v16Zm24,16v16a22.482,22.482,0,0,1-2.155,8.422C187.26,165.592,182.86,168,176,168c-6.7,0-11.041-2.29-13.653-7.206A22.064,22.064,0,0,1,160,152V136Zm16,0h32v16a22.482,22.482,0,0,1-2.155,8.422C235.26,165.592,230.86,168,224,168c-6.7,0-11.041-2.29-13.653-7.206A22.064,22.064,0,0,1,208,152Zm-96,0h32v16a22.482,22.482,0,0,1-2.155,8.422C139.26,165.592,134.86,168,128,168c-6.7,0-11.041-2.29-13.653-7.206A22.064,22.064,0,0,1,112,152Zm-8,37.8c5.093,5.9,12.864,10.2,24,10.2s18.907-4.306,24-10.2c5.093,5.9,12.864,10.2,24,10.2s18.907-4.306,24-10.2c5.093,5.9,12.864,10.2,24,10.2s18.907-4.306,24-10.2c5.093,5.9,12.864,10.2,24,10.2s18.907-4.306,24-10.2c5.093,5.9,12.864,10.2,24,10.2v80H304V240a8,8,0,0,0-8-8H232a8,8,0,0,0-8,8v24H200a8,8,0,0,0-8,8v24H176V280a24.039,24.039,0,0,0-16.041-22.638c.025-.451.041-.9.041-1.362V241.869A23.943,23.943,0,0,0,168,224V208a8,8,0,0,0-8-8H128a24.027,24.027,0,0,0-24,24v16a8,8,0,0,0,8,8v8c0,.458.016.911.041,1.362A24.039,24.039,0,0,0,96,280v16H80V184C91.136,184,98.907,179.694,104,173.8ZM320,280v16H208V280Zm-80-16V248h48v16ZM120,232v-8a8.009,8.009,0,0,1,8-8h24v8a8.009,8.009,0,0,1-8,8Zm24,16v8a8,8,0,0,1-16,0v-8Zm-8,32a23.944,23.944,0,0,0,17.7-7.813A8.01,8.01,0,0,1,160,280v16H112V280a8.01,8.01,0,0,1,6.3-7.813A23.944,23.944,0,0,0,136,280ZM64,136H96v16a22.482,22.482,0,0,1-2.155,8.422C91.26,165.592,86.86,168,80,168c-6.7,0-11.041-2.29-13.653-7.206A22.064,22.064,0,0,1,64,152ZM32,384V368H53.619l-5,16Zm32,72H42.881L64,388.42Zm120,0H80V344H184Zm120.581-72H200V336a8,8,0,0,0-8-8H72a8,8,0,0,0-7.652,5.666L58.619,352H32V136H48v16c0,9.354,4.514,22.018,16,28.235V304a8,8,0,0,0,8,8H328a8,8,0,0,0,8-8V180.235c11.486-6.218,16-18.881,16-28.235V136h56.031l.128,32H376a8,8,0,0,0-8,8V336.581A55.944,55.944,0,0,0,304.581,384ZM360,432a40,40,0,1,1,40-40A40.045,40.045,0,0,1,360,432Zm120-48H464V368h16Zm0-32H456a8,8,0,0,0-8,8v24H415.419A56.145,56.145,0,0,0,384,341.414V272h61.079L480,285.486Z"/><path d="M424,280H408a8,8,0,0,0,0,16h16a8,8,0,0,0,0-16Z"/><path d="M360,368a24,24,0,1,0,24,24A24.028,24.028,0,0,0,360,368Zm0,32a8,8,0,1,1,8-8A8.009,8.009,0,0,1,360,400Z"/><path d="M104,376h56a8,8,0,0,0,0-16H104a8,8,0,0,0,0,16Z"/><path d="M104,408h56a8,8,0,0,0,0-16H104a8,8,0,0,0,0,16Z"/><path d="M104,440h56a8,8,0,0,0,0-16H104a8,8,0,0,0,0,16Z"/></svg>
